<svg id="my-svg" width="100%" xmlns="http://www.w3.org/2000/svg" xmlns:xlink="http://www.w3.org/1999/xlink" class="flowchart" style="max-width: 1387.52px; background-color: transparent;" viewBox="0 0 1387.5234375 782" role="graphics-document document" aria-roledescription="flowchart-v2"><style>#my-svg{font-family:"trebuchet ms",verdana,arial,sans-serif;font-size:16px;fill:#000000;}@keyframes edge-animation-frame{from{stroke-dashoffset:0;}}@keyframes dash{to{stroke-dashoffset:0;}}#my-svg .edge-animation-slow{stroke-dasharray:9,5!important;stroke-dashoffset:900;animation:dash 50s linear infinite;stroke-linecap:round;}#my-svg .edge-animation-fast{stroke-dasharray:9,5!important;stroke-dashoffset:900;animation:dash 20s linear infinite;stroke-linecap:round;}#my-svg .error-icon{fill:#552222;}#my-svg .error-text{fill:#552222;stroke:#552222;}#my-svg .edge-thickness-normal{stroke-width:1px;}#my-svg .edge-thickness-thick{stroke-width:3.5px;}#my-svg .edge-pattern-solid{stroke-dasharray:0;}#my-svg .edge-thickness-invisible{stroke-width:0;fill:none;}#my-svg .edge-pattern-dashed{stroke-dasharray:3;}#my-svg .edge-pattern-dotted{stroke-dasharray:2;}#my-svg .marker{fill:#666;stroke:#666;}#my-svg .marker.cross{stroke:#666;}#my-svg svg{font-family:"trebuchet ms",verdana,arial,sans-serif;font-size:16px;}#my-svg p{margin:0;}#my-svg .label{font-family:"trebuchet ms",verdana,arial,sans-serif;color:#000000;}#my-svg .cluster-label text{fill:#333;}#my-svg .cluster-label span{color:#333;}#my-svg .cluster-label span p{background-color:transparent;}#my-svg .label text,#my-svg span{fill:#000000;color:#000000;}#my-svg .node rect,#my-svg .node circle,#my-svg .node ellipse,#my-svg .node polygon,#my-svg .node path{fill:#eee;stroke:#999;stroke-width:1px;}#my-svg .rough-node .label text,#my-svg .node .label text,#my-svg .image-shape .label,#my-svg .icon-shape .label{text-anchor:middle;}#my-svg .node .katex path{fill:#000;stroke:#000;stroke-width:1px;}#my-svg .rough-node .label,#my-svg .node .label,#my-svg .image-shape .label,#my-svg .icon-shape .label{text-align:center;}#my-svg .node.clickable{cursor:pointer;}#my-svg .root .anchor path{fill:#666!important;stroke-width:0;stroke:#666;}#my-svg .arrowheadPath{fill:#333333;}#my-svg .edgePath .path{stroke:#666;stroke-width:1px;}#my-svg .flowchart-link{stroke:#666;fill:none;}#my-svg .edgeLabel{background-color:white;text-align:center;}#my-svg .edgeLabel p{background-color:white;}#my-svg .edgeLabel rect{opacity:0.5;background-color:white;fill:white;}#my-svg .labelBkg{background-color:rgba(255, 255, 255, 0.5);}#my-svg .cluster rect{fill:hsl(0, 0%, 98.9215686275%);stroke:#707070;stroke-width:1px;}#my-svg .cluster text{fill:#333;}#my-svg .cluster span{color:#333;}#my-svg div.mermaidTooltip{position:absolute;text-align:center;max-width:200px;padding:2px;font-family:"trebuchet ms",verdana,arial,sans-serif;font-size:12px;background:hsl(-160, 0%, 93.3333333333%);border:1px solid #707070;border-radius:2px;pointer-events:none;z-index:100;}#my-svg .flowchartTitleText{text-anchor:middle;font-size:18px;fill:#000000;}#my-svg rect.text{fill:none;stroke-width:0;}#my-svg .icon-shape,#my-svg .image-shape{background-color:white;text-align:center;}#my-svg .icon-shape p,#my-svg .image-shape p{background-color:white;padding:2px;}#my-svg .icon-shape .label rect,#my-svg .image-shape .label rect{opacity:0.5;background-color:white;fill:white;}#my-svg .label-icon{display:inline-block;height:1em;overflow:visible;vertical-align:-0.125em;}#my-svg .node .label-icon path{fill:currentColor;stroke:revert;stroke-width:revert;}#my-svg .node .neo-node{stroke:#999;}#my-svg [data-look="neo"].node rect,#my-svg [data-look="neo"].cluster rect,#my-svg [data-look="neo"].node polygon{stroke:url(#my-svg-gradient);filter:drop-shadow( 1px 2px 2px rgba(185,185,185,1));}#my-svg [data-look="neo"].node path{stroke:url(#my-svg-gradient);stroke-width:1px;}#my-svg [data-look="neo"].node .outer-path{filter:drop-shadow( 1px 2px 2px rgba(185,185,185,1));}#my-svg [data-look="neo"].node .neo-line path{stroke:#999;filter:none;}#my-svg [data-look="neo"].node circle{stroke:url(#my-svg-gradient);filter:drop-shadow( 1px 2px 2px rgba(185,185,185,1));}#my-svg [data-look="neo"].node circle .state-start{fill:#000000;}#my-svg [data-look="neo"].icon-shape .icon{fill:url(#my-svg-gradient);filter:drop-shadow( 1px 2px 2px rgba(185,185,185,1));}#my-svg [data-look="neo"].icon-shape .icon-neo path{stroke:url(#my-svg-gradient);filter:drop-shadow( 1px 2px 2px rgba(185,185,185,1));}#my-svg :root{--mermaid-font-family:"trebuchet ms",verdana,arial,sans-serif;}</style><g><marker id="my-svg_flowchart-v2-pointEnd" class="marker flowchart-v2" viewBox="0 0 10 10" refX="5" refY="5" markerUnits="userSpaceOnUse" markerWidth="8" markerHeight="8" orient="auto"><path d="M 0 0 L 10 5 L 0 10 z" class="arrowMarkerPath" style="stroke-width: 1; stroke-dasharray: 1, 0;"/></marker><marker id="my-svg_flowchart-v2-pointStart" class="marker flowchart-v2" viewBox="0 0 10 10" refX="4.5" refY="5" markerUnits="userSpaceOnUse" markerWidth="8" markerHeight="8" orient="auto"><path d="M 0 5 L 10 10 L 10 0 z" class="arrowMarkerPath" style="stroke-width: 1; stroke-dasharray: 1, 0;"/></marker><marker id="my-svg_flowchart-v2-pointEnd-margin" class="marker flowchart-v2" viewBox="0 0 11.5 14" refX="11.5" refY="7" markerUnits="userSpaceOnUse" markerWidth="10.5" markerHeight="14" orient="auto"><path d="M 0 0 L 11.5 7 L 0 14 z" class="arrowMarkerPath" style="stroke-width: 0; stroke-dasharray: 1, 0;"/></marker><marker id="my-svg_flowchart-v2-pointStart-margin" class="marker flowchart-v2" viewBox="0 0 11.5 14" refX="1" refY="7" markerUnits="userSpaceOnUse" markerWidth="11.5" markerHeight="14" orient="auto"><polygon points="0,7 11.5,14 11.5,0" class="arrowMarkerPath" style="stroke-width: 0; stroke-dasharray: 1, 0;"/></marker><marker id="my-svg_flowchart-v2-circleEnd" class="marker flowchart-v2" viewBox="0 0 10 10" refX="11" refY="5" markerUnits="userSpaceOnUse" markerWidth="11" markerHeight="11" orient="auto"><circle cx="5" cy="5" r="5" class="arrowMarkerPath" style="stroke-width: 1; stroke-dasharray: 1, 0;"/></marker><marker id="my-svg_flowchart-v2-circleStart" class="marker flowchart-v2" viewBox="0 0 10 10" refX="-1" refY="5" markerUnits="userSpaceOnUse" markerWidth="11" markerHeight="11" orient="auto"><circle cx="5" cy="5" r="5" class="arrowMarkerPath" style="stroke-width: 1; stroke-dasharray: 1, 0;"/></marker><marker id="my-svg_flowchart-v2-circleEnd-margin" class="marker flowchart-v2" viewBox="0 0 10 10" refY="5" refX="12.25" markerUnits="userSpaceOnUse" markerWidth="14" markerHeight="14" orient="auto"><circle cx="5" cy="5" r="5" class="arrowMarkerPath" style="stroke-width: 0; stroke-dasharray: 1, 0;"/></marker><marker id="my-svg_flowchart-v2-circleStart-margin" class="marker flowchart-v2" viewBox="0 0 10 10" refX="-2" refY="5" markerUnits="userSpaceOnUse" markerWidth="14" markerHeight="14" orient="auto"><circle cx="5" cy="5" r="5" class="arrowMarkerPath" style="stroke-width: 0; stroke-dasharray: 1, 0;"/></marker><marker id="my-svg_flowchart-v2-crossEnd" class="marker cross flowchart-v2" viewBox="0 0 11 11" refX="12" refY="5.2" markerUnits="userSpaceOnUse" markerWidth="11" markerHeight="11" orient="auto"><path d="M 1,1 l 9,9 M 10,1 l -9,9" class="arrowMarkerPath" style="stroke-width: 2; stroke-dasharray: 1, 0;"/></marker><marker id="my-svg_flowchart-v2-crossStart" class="marker cross flowchart-v2" viewBox="0 0 11 11" refX="-1" refY="5.2" markerUnits="userSpaceOnUse" markerWidth="11" markerHeight="11" orient="auto"><path d="M 1,1 l 9,9 M 10,1 l -9,9" class="arrowMarkerPath" style="stroke-width: 2; stroke-dasharray: 1, 0;"/></marker><marker id="my-svg_flowchart-v2-crossEnd-margin" class="marker cross flowchart-v2" viewBox="0 0 15 15" refX="17.7" refY="7.5" markerUnits="userSpaceOnUse" markerWidth="12" markerHeight="12" orient="auto"><path d="M 1,1 L 14,14 M 1,14 L 14,1" class="arrowMarkerPath" style="stroke-width: 2.5;"/></marker><marker id="my-svg_flowchart-v2-crossStart-margin" class="marker cross flowchart-v2" viewBox="0 0 15 15" refX="-3.5" refY="7.5" markerUnits="userSpaceOnUse" markerWidth="12" markerHeight="12" orient="auto"><path d="M 1,1 L 14,14 M 1,14 L 14,1" class="arrowMarkerPath" style="stroke-width: 2.5; stroke-dasharray: 1, 0;"/></marker><g class="root"><g class="clusters"><g class="cluster" id="my-svg-Cloudflare" data-look="classic"><rect style="" x="18.4921875" y="542" width="1332.71875" height="232"/><g class="cluster-label" transform="translate(647.59375, 542)"><foreignObject width="74.515625" height="24"><div xmlns="http://www.w3.org/1999/xhtml" style="display: table-cell; white-space: nowrap; line-height: 1.5;"><span class="nodeLabel"><p>Cloudflare</p></span></div></foreignObject></g></g><g class="cluster" id="my-svg-Netlify" data-look="classic"><rect style="" x="149.8828125" y="186" width="1087.39453125" height="104"/><g class="cluster-label" transform="translate(669.392578125, 186)"><foreignObject width="48.375" height="24"><div xmlns="http://www.w3.org/1999/xhtml" style="display: table-cell; white-space: nowrap; line-height: 1.5;"><span class="nodeLabel"><p>Netlify</p></span></div></foreignObject></g></g><g class="cluster" id="my-svg-Admin" data-look="classic"><rect style="" x="525.4375" y="364" width="480.4453125" height="104"/><g class="cluster-label" transform="translate(743.19140625, 364)"><foreignObject width="44.9375" height="24"><div xmlns="http://www.w3.org/1999/xhtml" style="display: table-cell; white-space: nowrap; line-height: 1.5;"><span class="nodeLabel"><p>Admin</p></span></div></foreignObject></g></g><g class="cluster" id="my-svg-Public" data-look="classic"><rect style="" x="18.4921875" y="8" width="1342.71875" height="104"/><g class="cluster-label" transform="translate(667.9609375, 8)"><foreignObject width="43.78125" height="24"><div xmlns="http://www.w3.org/1999/xhtml" style="display: table-cell; white-space: nowrap; line-height: 1.5;"><span class="nodeLabel"><p>Public</p></span></div></foreignObject></g></g></g><g class="edgePaths"><path d="M626.77,66.571L560.656,74.142C494.543,81.714,362.316,96.857,296.203,110.595C230.09,124.333,230.09,136.667,230.09,149C230.09,161.333,230.09,173.667,290.868,186.794C351.645,199.921,473.201,213.842,533.979,220.802L594.756,227.763" id="my-svg-L_A_C_0" class="edge-thickness-normal edge-pattern-solid edge-thickness-normal edge-pattern-solid flowchart-link" style=";" data-edge="true" data-et="edge" data-id="L_A_C_0" data-points="W3sieCI6NjI2Ljc2OTUzMTI1LCJ5Ijo2Ni41NzA3OTQ0MDQ1ODM3fSx7IngiOjIzMC4wODk4NDM3NSwieSI6MTEyfSx7IngiOjIzMC4wODk4NDM3NSwieSI6MTQ5fSx7IngiOjIzMC4wODk4NDM3NSwieSI6MTg2fSx7IngiOjU5OC43MzA0Njg3NSwieSI6MjI4LjIxODA2OTgyMjI2MTJ9XQ==" data-look="classic" marker-end="url(#my-svg_flowchart-v2-pointEnd)"/><path d="M598.73,256.418L572.774,262.015C546.818,267.612,494.905,278.806,468.949,290.57C442.992,302.333,442.992,314.667,442.992,327C442.992,339.333,442.992,351.667,442.992,366.5C442.992,381.333,442.992,398.667,442.992,416C442.992,433.333,442.992,450.667,442.992,465.5C442.992,480.333,442.992,492.667,442.992,505C442.992,517.333,442.992,529.667,504.426,543.08C565.859,556.493,688.727,570.986,750.16,578.233L811.594,585.479" id="my-svg-L_C_D_0" class="edge-thickness-normal edge-pattern-solid edge-thickness-normal edge-pattern-solid flowchart-link" style=";" data-edge="true" data-et="edge" data-id="L_C_D_0" data-points="W3sieCI6NTk4LjczMDQ2ODc1LCJ5IjoyNTYuNDE3OTQ3Njc5NTk4M30seyJ4Ijo0NDIuOTkyMTg3NSwieSI6MjkwfSx7IngiOjQ0Mi45OTIxODc1LCJ5IjozMjd9LHsieCI6NDQyLjk5MjE4NzUsInkiOjM2NH0seyJ4Ijo0NDIuOTkyMTg3NSwieSI6NDE2fSx7IngiOjQ0Mi45OTIxODc1LCJ5Ijo0Njh9LHsieCI6NDQyLjk5MjE4NzUsInkiOjUwNX0seyJ4Ijo0NDIuOTkyMTg3NSwieSI6NTQyfSx7IngiOjgxNS41NjY0MDYyNSwieSI6NTg1Ljk0NzYxNDE5NTIwNjN9XQ==" data-look="classic" marker-end="url(#my-svg_flowchart-v2-pointEnd)"/><path d="M952.098,581.467L987.926,574.889C1023.755,568.311,1095.413,555.156,1131.242,542.411C1167.07,529.667,1167.07,517.333,1167.07,505C1167.07,492.667,1167.07,480.333,1167.07,465.5C1167.07,450.667,1167.07,433.333,1167.07,416C1167.07,398.667,1167.07,381.333,1167.07,366.5C1167.07,351.667,1167.07,339.333,1167.07,327C1167.07,314.667,1167.07,302.333,1101.481,289.104C1035.892,275.875,904.714,261.75,839.125,254.688L773.536,247.625" id="my-svg-L_D_C_0" class="edge-thickness-normal edge-pattern-solid edge-thickness-normal edge-pattern-solid flowchart-link" style=";" data-edge="true" data-et="edge" data-id="L_D_C_0" data-points="W3sieCI6OTUyLjA5NzY1NjI1LCJ5Ijo1ODEuNDY3MDQ1NDcwMjE3NX0seyJ4IjoxMTY3LjA3MDMxMjUsInkiOjU0Mn0seyJ4IjoxMTY3LjA3MDMxMjUsInkiOjUwNX0seyJ4IjoxMTY3LjA3MDMxMjUsInkiOjQ2OH0seyJ4IjoxMTY3LjA3MDMxMjUsInkiOjQxNn0seyJ4IjoxMTY3LjA3MDMxMjUsInkiOjM2NH0seyJ4IjoxMTY3LjA3MDMxMjUsInkiOjMyN30seyJ4IjoxMTY3LjA3MDMxMjUsInkiOjI5MH0seyJ4Ijo3NjkuNTU4NTkzNzUsInkiOjI0Ny4xOTcxMzAxMjMxOTExNn1d" data-look="classic" marker-end="url(#my-svg_flowchart-v2-pointEnd)"/><path d="M769.559,228.803L835.811,221.669C902.063,214.535,1034.566,200.268,1100.818,186.967C1167.07,173.667,1167.07,161.333,1167.07,149C1167.07,136.667,1167.07,124.333,1096.808,110.601C1026.546,96.869,886.021,81.737,815.759,74.172L745.497,66.606" id="my-svg-L_C_A_0" class="edge-thickness-normal edge-pattern-solid edge-thickness-normal edge-pattern-solid flowchart-link" style=";" data-edge="true" data-et="edge" data-id="L_C_A_0" data-points="W3sieCI6NzY5LjU1ODU5Mzc1LCJ5IjoyMjguODAyODY5ODc2ODA4ODR9LHsieCI6MTE2Ny4wNzAzMTI1LCJ5IjoxODZ9LHsieCI6MTE2Ny4wNzAzMTI1LCJ5IjoxNDl9LHsieCI6MTE2Ny4wNzAzMTI1LCJ5IjoxMTJ9LHsieCI6NzQxLjUxOTUzMTI1LCJ5Ijo2Ni4xNzc5Njc5NTI1MDMwNX1d" data-look="classic" marker-end="url(#my-svg_flowchart-v2-pointEnd)"/><path d="M626.77,64.977L536.421,72.814C446.073,80.651,265.376,96.326,175.028,110.329C84.68,124.333,84.68,136.667,84.68,149C84.68,161.333,84.68,173.667,84.68,188.5C84.68,203.333,84.68,220.667,84.68,238C84.68,255.333,84.68,272.667,84.68,287.5C84.68,302.333,84.68,314.667,84.68,327C84.68,339.333,84.68,351.667,84.68,366.5C84.68,381.333,84.68,398.667,84.68,416C84.68,433.333,84.68,450.667,84.68,465.5C84.68,480.333,84.68,492.667,84.68,505C84.68,517.333,84.68,529.667,84.68,544.5C84.68,559.333,84.68,576.667,84.68,596C84.68,615.333,84.68,636.667,199.482,656.527C314.284,676.388,543.889,694.776,658.691,703.97L773.493,713.164" id="my-svg-L_A_E_0" class="edge-thickness-normal edge-pattern-solid edge-thickness-normal edge-pattern-solid flowchart-link" style=";" data-edge="true" data-et="edge" data-id="L_A_E_0" data-points="W3sieCI6NjI2Ljc2OTUzMTI1LCJ5Ijo2NC45NzY5MzkwNjY3NDU3M30seyJ4Ijo4NC42Nzk2ODc1LCJ5IjoxMTJ9LHsieCI6ODQuNjc5Njg3NSwieSI6MTQ5fSx7IngiOjg0LjY3OTY4NzUsInkiOjE4Nn0seyJ4Ijo4NC42Nzk2ODc1LCJ5IjoyMzh9LHsieCI6ODQuNjc5Njg3NSwieSI6MjkwfSx7IngiOjg0LjY3OTY4NzUsInkiOjMyN30seyJ4Ijo4NC42Nzk2ODc1LCJ5IjozNjR9LHsieCI6ODQuNjc5Njg3NSwieSI6NDE2fSx7IngiOjg0LjY3OTY4NzUsInkiOjQ2OH0seyJ4Ijo4NC42Nzk2ODc1LCJ5Ijo1MDV9LHsieCI6ODQuNjc5Njg3NSwieSI6NTQyfSx7IngiOjg0LjY3OTY4NzUsInkiOjU5NH0seyJ4Ijo4NC42Nzk2ODc1LCJ5Ijo2NTh9LHsieCI6Nzc3LjQ4MDQ2ODc1LCJ5Ijo3MTMuNDgyODUwNDgxMjIyN31d" data-look="classic" marker-end="url(#my-svg_flowchart-v2-pointEnd)"/><path d="M990.184,698.465L1020.66,691.721C1051.137,684.977,1112.09,671.488,1106.393,656.739C1100.696,641.99,1028.35,625.981,992.176,617.976L956.003,609.971" id="my-svg-L_E_D_0" class="edge-thickness-normal edge-pattern-solid edge-thickness-normal edge-pattern-solid flowchart-link" style=";" data-edge="true" data-et="edge" data-id="L_E_D_0" data-points="W3sieCI6OTkwLjE4MzU5Mzc1LCJ5Ijo2OTguNDY1Mjc0NTg4NzI0N30seyJ4IjoxMTczLjA0Mjk2ODc1LCJ5Ijo2NTh9LHsieCI6OTUyLjA5NzY1NjI1LCJ5Ijo2MDkuMTA2NjIwOTI0MzkwMn1d" data-look="classic" marker-end="url(#my-svg_flowchart-v2-pointEnd)"/><path d="M815.566,601.776L733.301,611.147C651.035,620.517,486.504,639.259,479.494,657.202C472.484,675.144,622.995,692.289,698.251,700.861L773.506,709.433" id="my-svg-L_D_E_0" class="edge-thickness-normal edge-pattern-solid edge-thickness-normal edge-pattern-solid flowchart-link" style=";" data-edge="true" data-et="edge" data-id="L_D_E_0" data-points="W3sieCI6ODE1LjU2NjQwNjI1LCJ5Ijo2MDEuNzc1OTY3MDczNjExNn0seyJ4IjozMjEuOTcyNjU2MjUsInkiOjY1OH0seyJ4Ijo3NzcuNDgwNDY4NzUsInkiOjcwOS44ODU3NTg3ODA4MzM3fV0=" data-look="classic" marker-end="url(#my-svg_flowchart-v2-pointEnd)"/><path d="M990.184,705.84L1042.657,697.867C1095.13,689.893,1200.077,673.947,1252.55,655.307C1305.023,636.667,1305.023,615.333,1305.023,596C1305.023,576.667,1305.023,559.333,1305.023,544.5C1305.023,529.667,1305.023,517.333,1305.023,505C1305.023,492.667,1305.023,480.333,1305.023,465.5C1305.023,450.667,1305.023,433.333,1305.023,416C1305.023,398.667,1305.023,381.333,1305.023,366.5C1305.023,351.667,1305.023,339.333,1305.023,327C1305.023,314.667,1305.023,302.333,1305.023,287.5C1305.023,272.667,1305.023,255.333,1305.023,238C1305.023,220.667,1305.023,203.333,1305.023,188.5C1305.023,173.667,1305.023,161.333,1305.023,149C1305.023,136.667,1305.023,124.333,1211.77,110.357C1118.517,96.38,932.012,80.759,838.759,72.949L745.506,65.139" id="my-svg-L_E_A_0" class="edge-thickness-normal edge-pattern-solid edge-thickness-normal edge-pattern-solid flowchart-link" style=";" data-edge="true" data-et="edge" data-id="L_E_A_0" data-points="W3sieCI6OTkwLjE4MzU5Mzc1LCJ5Ijo3MDUuODM5ODg4NzA4NTU1Nn0seyJ4IjoxMzA1LjAyMzQzNzUsInkiOjY1OH0seyJ4IjoxMzA1LjAyMzQzNzUsInkiOjU5NH0seyJ4IjoxMzA1LjAyMzQzNzUsInkiOjU0Mn0seyJ4IjoxMzA1LjAyMzQzNzUsInkiOjUwNX0seyJ4IjoxMzA1LjAyMzQzNzUsInkiOjQ2OH0seyJ4IjoxMzA1LjAyMzQzNzUsInkiOjQxNn0seyJ4IjoxMzA1LjAyMzQzNzUsInkiOjM2NH0seyJ4IjoxMzA1LjAyMzQzNzUsInkiOjMyN30seyJ4IjoxMzA1LjAyMzQzNzUsInkiOjI5MH0seyJ4IjoxMzA1LjAyMzQzNzUsInkiOjIzOH0seyJ4IjoxMzA1LjAyMzQzNzUsInkiOjE4Nn0seyJ4IjoxMzA1LjAyMzQzNzUsInkiOjE0OX0seyJ4IjoxMzA1LjAyMzQzNzUsInkiOjExMn0seyJ4Ijo3NDEuNTE5NTMxMjUsInkiOjY0LjgwNTI4NDg0Njk1OTY0fV0=" data-look="classic" marker-end="url(#my-svg_flowchart-v2-pointEnd)"/><path d="M730.665,389L724.938,384.833C719.211,380.667,707.758,372.333,702.031,362C696.305,351.667,696.305,339.333,696.305,327C696.305,314.667,696.305,302.333,695.482,292.649C694.66,282.965,693.014,275.93,692.192,272.412L691.369,268.895" id="my-svg-L_B_C_0" class="edge-thickness-normal edge-pattern-solid edge-thickness-normal edge-pattern-solid flowchart-link" style=";" data-edge="true" data-et="edge" data-id="L_B_C_0" data-points="W3sieCI6NzMwLjY2NDY2MzQ2MTUzODUsInkiOjM4OX0seyJ4Ijo2OTYuMzA0Njg3NSwieSI6MzY0fSx7IngiOjY5Ni4zMDQ2ODc1LCJ5IjozMjd9LHsieCI6Njk2LjMwNDY4NzUsInkiOjI5MH0seyJ4Ijo2OTAuNDU4NDU4NTMzNjUzOCwieSI6MjY1fV0=" data-look="classic" marker-end="url(#my-svg_flowchart-v2-pointEnd)"/><path d="M622.508,265L612.996,269.167C603.485,273.333,584.461,281.667,574.949,292C565.438,302.333,565.438,314.667,565.438,327C565.438,339.333,565.438,351.667,589.77,364.087C614.102,376.507,662.766,389.013,687.098,395.267L711.431,401.52" id="my-svg-L_C_B_0" class="edge-thickness-normal edge-pattern-solid edge-thickness-normal edge-pattern-solid flowchart-link" style=";" data-edge="true" data-et="edge" data-id="L_C_B_0" data-points="W3sieCI6NjIyLjUwODE4ODEwMDk2MTUsInkiOjI2NX0seyJ4Ijo1NjUuNDM3NSwieSI6MjkwfSx7IngiOjU2NS40Mzc1LCJ5IjozMjd9LHsieCI6NTY1LjQzNzUsInkiOjM2NH0seyJ4Ijo3MTUuMzA0Njg3NSwieSI6NDAyLjUxNTYxODM2MzY0MzR9XQ==" data-look="classic" marker-end="url(#my-svg_flowchart-v2-pointEnd)"/><path d="M767.773,443L767.773,447.167C767.773,451.333,767.773,459.667,767.773,470C767.773,480.333,767.773,492.667,767.773,505C767.773,517.333,767.773,529.667,776.465,539.727C785.156,549.788,802.538,557.576,811.229,561.47L819.92,565.364" id="my-svg-L_B_D_0" class="edge-thickness-normal edge-pattern-solid edge-thickness-normal edge-pattern-solid flowchart-link" style=";" data-edge="true" data-et="edge" data-id="L_B_D_0" data-points="W3sieCI6NzY3Ljc3MzQzNzUsInkiOjQ0M30seyJ4Ijo3NjcuNzczNDM3NSwieSI6NDY4fSx7IngiOjc2Ny43NzM0Mzc1LCJ5Ijo1MDV9LHsieCI6NzY3Ljc3MzQzNzUsInkiOjU0Mn0seyJ4Ijo4MjMuNTcwODM4MzQxMzQ2MiwieSI6NTY3fV0=" data-look="classic" marker-end="url(#my-svg_flowchart-v2-pointEnd)"/><path d="M804.882,389L810.609,384.833C816.336,380.667,827.789,372.333,833.516,362C839.242,351.667,839.242,339.333,839.242,327C839.242,314.667,839.242,302.333,827.447,292.212C815.651,282.091,792.06,274.181,780.264,270.226L768.469,266.272" id="my-svg-L_B_C_2" class="edge-thickness-normal edge-pattern-solid edge-thickness-normal edge-pattern-solid flowchart-link" style=";" data-edge="true" data-et="edge" data-id="L_B_C_2" data-points="W3sieCI6ODA0Ljg4MjIxMTUzODQ2MTUsInkiOjM4OX0seyJ4Ijo4MzkuMjQyMTg3NSwieSI6MzY0fSx7IngiOjgzOS4yNDIxODc1LCJ5IjozMjd9LHsieCI6ODM5LjI0MjE4NzUsInkiOjI5MH0seyJ4Ijo3NjQuNjc2MDA2NjEwNTc2OSwieSI6MjY1fV0=" data-look="classic" marker-end="url(#my-svg_flowchart-v2-pointEnd)"/><path d="M769.559,249.47L819.859,256.225C870.159,262.98,970.759,276.49,1021.059,289.412C1071.359,302.333,1071.359,314.667,1071.359,327C1071.359,339.333,1071.359,351.667,1071.359,366.5C1071.359,381.333,1071.359,398.667,1071.359,416C1071.359,433.333,1071.359,450.667,1071.359,465.5C1071.359,480.333,1071.359,492.667,1071.359,505C1071.359,517.333,1071.359,529.667,1052.125,541.167C1032.89,552.667,994.421,563.334,975.187,568.668L955.952,574.002" id="my-svg-L_C_D_2" class="edge-thickness-normal edge-pattern-solid edge-thickness-normal edge-pattern-solid flowchart-link" style=";" data-edge="true" data-et="edge" data-id="L_C_D_2" data-points="W3sieCI6NzY5LjU1ODU5Mzc1LCJ5IjoyNDkuNDcwNDU3MDkwMzk5MTh9LHsieCI6MTA3MS4zNTkzNzUsInkiOjI5MH0seyJ4IjoxMDcxLjM1OTM3NSwieSI6MzI3fSx7IngiOjEwNzEuMzU5Mzc1LCJ5IjozNjR9LHsieCI6MTA3MS4zNTkzNzUsInkiOjQxNn0seyJ4IjoxMDcxLjM1OTM3NSwieSI6NDY4fSx7IngiOjEwNzEuMzU5Mzc1LCJ5Ijo1MDV9LHsieCI6MTA3MS4zNTkzNzUsInkiOjU0Mn0seyJ4Ijo5NTIuMDk3NjU2MjUsInkiOjU3NS4wNzA0MjcyMjkzNjI0fV0=" data-look="classic" marker-end="url(#my-svg_flowchart-v2-pointEnd)"/><path d="M820.242,403.491L847.849,396.909C875.456,390.327,930.669,377.164,958.276,364.415C985.883,351.667,985.883,339.333,985.883,327C985.883,314.667,985.883,302.333,950.486,290.067C915.089,277.8,844.295,265.599,808.898,259.499L773.5,253.399" id="my-svg-L_B_C_3" class="edge-thickness-normal edge-pattern-solid edge-thickness-normal edge-pattern-solid flowchart-link" style=";" data-edge="true" data-et="edge" data-id="L_B_C_3" data-points="W3sieCI6ODIwLjI0MjE4NzUsInkiOjQwMy40OTA3OTQ0Njk1MTc5fSx7IngiOjk4NS44ODI4MTI1LCJ5IjozNjR9LHsieCI6OTg1Ljg4MjgxMjUsInkiOjMyN30seyJ4Ijo5ODUuODgyODEyNSwieSI6MjkwfSx7IngiOjc2OS41NTg1OTM3NSwieSI6MjUyLjcxOTgxMzU4MDE2N31d" data-look="classic" marker-end="url(#my-svg_flowchart-v2-pointEnd)"/><path d="M598.73,247.782L537.29,254.818C475.85,261.855,352.97,275.927,291.53,289.13C230.09,302.333,230.09,314.667,230.09,327C230.09,339.333,230.09,351.667,232.952,361.476C235.815,371.285,241.539,378.57,244.402,382.212L247.264,385.855" id="my-svg-L_C_F_0" class="edge-thickness-normal edge-pattern-solid edge-thickness-normal edge-pattern-solid flowchart-link" style=";" data-edge="true" data-et="edge" data-id="L_C_F_0" data-points="W3sieCI6NTk4LjczMDQ2ODc1LCJ5IjoyNDcuNzgxOTMwMTc3NzM4OH0seyJ4IjoyMzAuMDg5ODQzNzUsInkiOjI5MH0seyJ4IjoyMzAuMDg5ODQzNzUsInkiOjMyN30seyJ4IjoyMzAuMDg5ODQzNzUsInkiOjM2NH0seyJ4IjoyNDkuNzM1NjUyMDQzMjY5MjMsInkiOjM4OX1d" data-look="classic" marker-end="url(#my-svg_flowchart-v2-pointEnd)"/><path d="M304.109,389L309.225,384.833C314.342,380.667,324.575,372.333,329.692,362C334.809,351.667,334.809,339.333,334.809,327C334.809,314.667,334.809,302.333,378.136,289.717C421.464,277.101,508.119,264.202,551.446,257.753L594.774,251.303" id="my-svg-L_F_C_0" class="edge-thickness-normal edge-pattern-solid edge-thickness-normal edge-pattern-solid flowchart-link" style=";" data-edge="true" data-et="edge" data-id="L_F_C_0" data-points="W3sieCI6MzA0LjEwODg0OTE1ODY1Mzg3LCJ5IjozODl9LHsieCI6MzM0LjgwODU5Mzc1LCJ5IjozNjR9LHsieCI6MzM0LjgwODU5Mzc1LCJ5IjozMjd9LHsieCI6MzM0LjgwODU5Mzc1LCJ5IjoyOTB9LHsieCI6NTk4LjczMDQ2ODc1LCJ5IjoyNTAuNzE0MjEyMjMzMDMxNDJ9XQ==" data-look="classic" marker-end="url(#my-svg_flowchart-v2-pointEnd)"/></g><g class="edgeLabels"><g class="edgeLabel" transform="translate(230.08984375, 149)"><g class="label" data-id="L_A_C_0" transform="translate(-36.8828125, -12)"><foreignObject width="73.765625" height="24"><div xmlns="http://www.w3.org/1999/xhtml" class="labelBkg" style="display: table-cell; white-space: nowrap; line-height: 1.5; max-width: 200px; text-align: center;"><span class="edgeLabel"><p>GET pages</p></span></div></foreignObject></g></g><g class="edgeLabel" transform="translate(442.9921875, 416)"><g class="label" data-id="L_C_D_0" transform="translate(-62.4453125, -12)"><foreignObject width="124.890625" height="24"><div xmlns="http://www.w3.org/1999/xhtml" class="labelBkg" style="display: table-cell; white-space: nowrap; line-height: 1.5; max-width: 200px; text-align: center;"><span class="edgeLabel"><p>GET albums JSON</p></span></div></foreignObject></g></g><g class="edgeLabel" transform="translate(1167.0703125, 416)"><g class="label" data-id="L_D_C_0" transform="translate(-40.9921875, -12)"><foreignObject width="81.984375" height="24"><div xmlns="http://www.w3.org/1999/xhtml" class="labelBkg" style="display: table-cell; white-space: nowrap; line-height: 1.5; max-width: 200px; text-align: center;"><span class="edgeLabel"><p>Album data</p></span></div></foreignObject></g></g><g class="edgeLabel" transform="translate(1167.0703125, 149)"><g class="label" data-id="L_C_A_0" transform="translate(-52.1484375, -12)"><foreignObject width="104.296875" height="24"><div xmlns="http://www.w3.org/1999/xhtml" class="labelBkg" style="display: table-cell; white-space: nowrap; line-height: 1.5; max-width: 200px; text-align: center;"><span class="edgeLabel"><p>HTML + photos</p></span></div></foreignObject></g></g><g class="edgeLabel" transform="translate(84.6796875, 416)"><g class="label" data-id="L_A_E_0" transform="translate(-76.6796875, -12)"><foreignObject width="153.359375" height="24"><div xmlns="http://www.w3.org/1999/xhtml" class="labelBkg" style="display: table-cell; white-space: nowrap; line-height: 1.5; max-width: 200px; text-align: center;"><span class="edgeLabel"><p>GET /cdn-cgi/image/</p></span></div></foreignObject></g></g><g class="edgeLabel" transform="translate(1154, 653.78595)"><g class="label" data-id="L_E_D_0" transform="translate(-39.4921875, -12)"><foreignObject width="78.984375" height="24"><div xmlns="http://www.w3.org/1999/xhtml" class="labelBkg" style="display: table-cell; white-space: nowrap; line-height: 1.5; max-width: 200px; text-align: center;"><span class="edgeLabel"><p>Cache miss</p></span></div></foreignObject></g></g><g class="edgeLabel" transform="translate(341.01563, 655.83086)"><g class="label" data-id="L_D_E_0" transform="translate(-47.296875, -12)"><foreignObject width="94.59375" height="24"><div xmlns="http://www.w3.org/1999/xhtml" class="labelBkg" style="display: table-cell; white-space: nowrap; line-height: 1.5; max-width: 200px; text-align: center;"><span class="edgeLabel"><p>JPEG original</p></span></div></foreignObject></g></g><g class="edgeLabel" transform="translate(1305.0234375, 416)"><g class="label" data-id="L_E_A_0" transform="translate(-74.5, -12)"><foreignObject width="149" height="24"><div xmlns="http://www.w3.org/1999/xhtml" class="labelBkg" style="display: table-cell; white-space: nowrap; line-height: 1.5; max-width: 200px; text-align: center;"><span class="edgeLabel"><p>WebP redimensionné</p></span></div></foreignObject></g></g><g class="edgeLabel" transform="translate(696.3046875, 327)"><g class="label" data-id="L_B_C_0" transform="translate(-61.7734375, -12)"><foreignObject width="123.546875" height="24"><div xmlns="http://www.w3.org/1999/xhtml" class="labelBkg" style="display: table-cell; white-space: nowrap; line-height: 1.5; max-width: 200px; text-align: center;"><span class="edgeLabel"><p>GET /api/presign</p></span></div></foreignObject></g></g><g class="edgeLabel" transform="translate(565.4375, 327)"><g class="label" data-id="L_C_B_0" transform="translate(-49.09375, -12)"><foreignObject width="98.1875" height="24"><div xmlns="http://www.w3.org/1999/xhtml" class="labelBkg" style="display: table-cell; white-space: nowrap; line-height: 1.5; max-width: 200px; text-align: center;"><span class="edgeLabel"><p>URL signée S3</p></span></div></foreignObject></g></g><g class="edgeLabel" transform="translate(767.7734375, 505)"><g class="label" data-id="L_B_D_0" transform="translate(-60.8984375, -12)"><foreignObject width="121.796875" height="24"><div xmlns="http://www.w3.org/1999/xhtml" class="labelBkg" style="display: table-cell; white-space: nowrap; line-height: 1.5; max-width: 200px; text-align: center;"><span class="edgeLabel"><p>PUT photo direct</p></span></div></foreignObject></g></g><g class="edgeLabel" transform="translate(839.2421875, 327)"><g class="label" data-id="L_B_C_2" transform="translate(-61.1640625, -12)"><foreignObject width="122.328125" height="24"><div xmlns="http://www.w3.org/1999/xhtml" class="labelBkg" style="display: table-cell; white-space: nowrap; line-height: 1.5; max-width: 200px; text-align: center;"><span class="edgeLabel"><p>PUT /api/albums</p></span></div></foreignObject></g></g><g class="edgeLabel" transform="translate(1071.359375, 416)"><g class="label" data-id="L_C_D_2" transform="translate(-34.71875, -12)"><foreignObject width="69.4375" height="24"><div xmlns="http://www.w3.org/1999/xhtml" class="labelBkg" style="display: table-cell; white-space: nowrap; line-height: 1.5; max-width: 200px; text-align: center;"><span class="edgeLabel"><p>PUT JSON</p></span></div></foreignObject></g></g><g class="edgeLabel" transform="translate(985.8828125, 327)"><g class="label" data-id="L_B_C_3" transform="translate(-65.4765625, -12)"><foreignObject width="130.953125" height="24"><div xmlns="http://www.w3.org/1999/xhtml" class="labelBkg" style="display: table-cell; white-space: nowrap; line-height: 1.5; max-width: 200px; text-align: center;"><span class="edgeLabel"><p>POST /api/publish</p></span></div></foreignObject></g></g><g class="edgeLabel" transform="translate(230.08984375, 327)"><g class="label" data-id="L_C_F_0" transform="translate(-37.3984375, -12)"><foreignObject width="74.796875" height="24"><div xmlns="http://www.w3.org/1999/xhtml" class="labelBkg" style="display: table-cell; white-space: nowrap; line-height: 1.5; max-width: 200px; text-align: center;"><span class="edgeLabel"><p>Build hook</p></span></div></foreignObject></g></g><g class="edgeLabel" transform="translate(334.80859375, 327)"><g class="label" data-id="L_F_C_0" transform="translate(-24.328125, -12)"><foreignObject width="48.65625" height="24"><div xmlns="http://www.w3.org/1999/xhtml" class="labelBkg" style="display: table-cell; white-space: nowrap; line-height: 1.5; max-width: 200px; text-align: center;"><span class="edgeLabel"><p>Deploy</p></span></div></foreignObject></g></g></g><g class="nodes"><g class="node default" id="my-svg-flowchart-A-0" data-look="classic" transform="translate(684.14453125, 60)"><rect class="basic label-container" style="" x="-57.375" y="-27" width="114.75" height="54"/><g class="label" style="" transform="translate(-27.375, -12)"><rect/><foreignObject width="54.75" height="24"><div xmlns="http://www.w3.org/1999/xhtml" style="display: table-cell; white-space: nowrap; line-height: 1.5; max-width: 200px; text-align: center;"><span class="nodeLabel"><p>Visiteur</p></span></div></foreignObject></g></g><g class="node default" id="my-svg-flowchart-B-1" data-look="classic" transform="translate(767.7734375, 416)"><rect class="basic label-container" style="" x="-52.46875" y="-27" width="104.9375" height="54"/><g class="label" style="" transform="translate(-22.46875, -12)"><rect/><foreignObject width="44.9375" height="24"><div xmlns="http://www.w3.org/1999/xhtml" style="display: table-cell; white-space: nowrap; line-height: 1.5; max-width: 200px; text-align: center;"><span class="nodeLabel"><p>Admin</p></span></div></foreignObject></g></g><g class="node default" id="my-svg-flowchart-C-2" data-look="classic" transform="translate(684.14453125, 238)"><rect class="basic label-container" style="" x="-85.4140625" y="-27" width="170.828125" height="54"/><g class="label" style="" transform="translate(-55.4140625, -12)"><rect/><foreignObject width="110.828125" height="24"><div xmlns="http://www.w3.org/1999/xhtml" style="display: table-cell; white-space: nowrap; line-height: 1.5; max-width: 200px; text-align: center;"><span class="nodeLabel"><p>Astro SSR / SSG</p></span></div></foreignObject></g></g><g class="node default" id="my-svg-flowchart-D-3" data-look="classic" transform="translate(883.83203125, 594)"><rect class="basic label-container" style="" x="-68.265625" y="-27" width="136.53125" height="54"/><g class="label" style="" transform="translate(-38.265625, -12)"><rect/><foreignObject width="76.53125" height="24"><div xmlns="http://www.w3.org/1999/xhtml" style="display: table-cell; white-space: nowrap; line-height: 1.5; max-width: 200px; text-align: center;"><span class="nodeLabel"><p>R2 Storage</p></span></div></foreignObject></g></g><g class="node default" id="my-svg-flowchart-E-4" data-look="classic" transform="translate(883.83203125, 722)"><rect class="basic label-container" style="" x="-106.3515625" y="-27" width="212.703125" height="54"/><g class="label" style="" transform="translate(-76.3515625, -12)"><rect/><foreignObject width="152.703125" height="24"><div xmlns="http://www.w3.org/1999/xhtml" style="display: table-cell; white-space: nowrap; line-height: 1.5; max-width: 200px; text-align: center;"><span class="nodeLabel"><p>CDN + Image Resizing</p></span></div></foreignObject></g></g><g class="node default" id="my-svg-flowchart-F-34" data-look="classic" transform="translate(270.953125, 416)"><rect class="basic label-container" style="" x="-74.59375" y="-27" width="149.1875" height="54"/><g class="label" style="" transform="translate(-44.59375, -12)"><rect/><foreignObject width="89.1875" height="24"><div xmlns="http://www.w3.org/1999/xhtml" style="display: table-cell; white-space: nowrap; line-height: 1.5; max-width: 200px; text-align: center;"><span class="nodeLabel"><p>Netlify Build</p></span></div></foreignObject></g></g></g></g></g><defs><filter id="my-svg-drop-shadow" height="130%" width="130%"><feDropShadow dx="4" dy="4" stdDeviation="0" flood-opacity="0.06" flood-color="#000000"/></filter></defs><defs><filter id="my-svg-drop-shadow-small" height="150%" width="150%"><feDropShadow dx="2" dy="2" stdDeviation="0" flood-opacity="0.06" flood-color="#000000"/></filter></defs><linearGradient id="my-svg-gradient" gradientUnits="objectBoundingBox" x1="0%" y1="0%" x2="100%" y2="0%"><stop offset="0%" stop-color="hsl(0, 0%, 83.3333333333%)" stop-opacity="1"/><stop offset="100%" stop-color="hsl(0, 0%, 88.9215686275%)" stop-opacity="1"/></linearGradient></svg>