<svg xmlns="http://www.w3.org/2000/svg" viewBox="0 0 32 32" fill="none">
  <rect width="32" height="32" rx="6" fill="#0a0a0a"/>
  <svg x="4" y="6" width="24" height="20" viewBox="0 0 489 400">
    <path d="M458.306 198.816C458.05 199.1 457.909 199.469 457.909 199.851C457.909 200.234 458.05 200.603 458.306 200.887C517.241 265.304 486.447 374.863 401.442 396.151C391.974 398.542 377.296 399.786 357.408 399.883C338.415 399.98 319.615 399.971 301.01 399.854C299.319 399.835 298.804 399.047 299.465 397.492L329.326 326.63C329.773 325.561 330.57 325.016 331.717 324.997C349.71 324.822 374.059 327.563 388.961 321.177C422.963 306.625 422.117 255.506 388.873 241.012C382.924 238.407 374.371 237.105 363.211 237.105C309.283 237.085 255.509 237.095 201.891 237.134C201.708 237.134 201.527 237.089 201.365 237.002C201.203 236.915 201.065 236.79 200.964 236.637C200.863 236.483 200.801 236.307 200.785 236.124C200.769 235.941 200.798 235.757 200.871 235.588L230.761 164.814C231.072 164.082 231.59 163.458 232.249 163.022C232.908 162.586 233.679 162.357 234.464 162.364C276.126 162.559 318.06 162.607 360.266 162.51C374.341 162.471 384.46 161.013 390.623 158.136C423.138 143.001 421.651 88.2364 385.782 77.0093C380.825 75.4541 372.232 74.6764 360.004 74.6764C240.617 74.7736 121.173 74.7833 1.66969 74.7056C0.269944 74.7056 -0.157762 74.0543 0.386582 72.7518L30.102 2.7063C30.8018 1.09271 32.0363 0.276204 33.8054 0.256763C140.555 -0.112613 247.266 -0.0834554 353.938 0.344244C377.131 0.441448 393.724 1.79259 403.716 4.39766C421.174 8.92738 436.154 17.044 448.654 28.7474C496.595 73.5683 503.915 148.746 458.306 198.816Z" fill="white"/>
    <path d="M279.11 326.63L248.462 399.271C248.37 399.488 248.215 399.674 248.018 399.803C247.821 399.933 247.59 400.001 247.353 400L1.20294 399.971C1.00488 399.972 0.809597 399.924 0.634677 399.831C0.459758 399.738 0.310661 399.603 0.200791 399.438C0.090921 399.274 0.0237294 399.084 0.00522831 398.887C-0.0132728 398.69 0.0175004 398.491 0.0948 398.309L117.382 121.86C117.474 121.642 117.628 121.457 117.825 121.327C118.022 121.198 118.254 121.129 118.49 121.13L197.196 121.101C197.394 121.1 197.589 121.148 197.764 121.241C197.939 121.334 198.088 121.469 198.198 121.634C198.308 121.799 198.375 121.988 198.394 122.185C198.412 122.382 198.381 122.581 198.304 122.764L113.386 323.247C113.309 323.43 113.278 323.629 113.297 323.826C113.315 324.023 113.383 324.212 113.492 324.377C113.602 324.542 113.751 324.677 113.926 324.77C114.101 324.863 114.297 324.911 114.495 324.91L278.002 324.968C278.2 324.967 278.395 325.015 278.57 325.108C278.745 325.201 278.894 325.336 279.004 325.5C279.114 325.665 279.181 325.855 279.2 326.052C279.218 326.249 279.187 326.448 279.11 326.63Z" fill="white"/>
  </svg>
</svg>
